<mxfile host="app.diagrams.net" modified="2022-08-03T04:39:43.585Z" agent="5.0 (Windows NT 10.0; Win64; x64) AppleWebKit/537.36 (KHTML, like Gecko) Chrome/103.0.0.0 Safari/537.36" etag="cBoWjPO3jBiNhatjE0vd" version="20.2.2" type="github">
  <diagram id="caynKrlvmAANhwfFWNpB" name="Page-1">
    <mxGraphModel dx="2942" dy="1114" grid="1" gridSize="10" guides="1" tooltips="1" connect="1" arrows="1" fold="1" page="1" pageScale="1" pageWidth="827" pageHeight="1169" math="0" shadow="0">
      <root>
        <mxCell id="0" />
        <mxCell id="1" parent="0" />
        <mxCell id="evNDBxI6ZCn4s6gntnHf-8" style="edgeStyle=orthogonalEdgeStyle;rounded=0;orthogonalLoop=1;jettySize=auto;html=1;exitX=1;exitY=0.5;exitDx=0;exitDy=0;exitPerimeter=0;" parent="1" source="l5a9UCpcYKZ8Kxy0lygq-2" edge="1">
          <mxGeometry relative="1" as="geometry">
            <mxPoint x="261" y="300.0000000000001" as="targetPoint" />
            <mxPoint x="126" y="300.0476190476189" as="sourcePoint" />
          </mxGeometry>
        </mxCell>
        <mxCell id="evNDBxI6ZCn4s6gntnHf-9" value="(1)" style="edgeLabel;html=1;align=center;verticalAlign=middle;resizable=0;points=[];" parent="evNDBxI6ZCn4s6gntnHf-8" vertex="1" connectable="0">
          <mxGeometry x="-0.3434" relative="1" as="geometry">
            <mxPoint x="15" y="10" as="offset" />
          </mxGeometry>
        </mxCell>
        <mxCell id="l5a9UCpcYKZ8Kxy0lygq-1" value="AWS Cloud" style="points=[[0,0],[0.25,0],[0.5,0],[0.75,0],[1,0],[1,0.25],[1,0.5],[1,0.75],[1,1],[0.75,1],[0.5,1],[0.25,1],[0,1],[0,0.75],[0,0.5],[0,0.25]];outlineConnect=0;gradientColor=none;html=1;whiteSpace=wrap;fontSize=12;fontStyle=0;container=1;pointerEvents=0;collapsible=0;recursiveResize=0;shape=mxgraph.aws4.group;grIcon=mxgraph.aws4.group_aws_cloud;strokeColor=#232F3E;fillColor=none;verticalAlign=top;align=left;spacingLeft=30;fontColor=#232F3E;dashed=0;" parent="1" vertex="1">
          <mxGeometry x="40" y="160" width="560" height="300" as="geometry" />
        </mxCell>
        <mxCell id="l5a9UCpcYKZ8Kxy0lygq-2" value="&lt;b&gt;AWS EC2&lt;br&gt;&lt;/b&gt;Source Server" style="sketch=0;points=[[0,0,0],[0.25,0,0],[0.5,0,0],[0.75,0,0],[1,0,0],[0,1,0],[0.25,1,0],[0.5,1,0],[0.75,1,0],[1,1,0],[0,0.25,0],[0,0.5,0],[0,0.75,0],[1,0.25,0],[1,0.5,0],[1,0.75,0]];outlineConnect=0;fontColor=#232F3E;gradientColor=#F78E04;gradientDirection=north;fillColor=#D05C17;strokeColor=#ffffff;dashed=0;verticalLabelPosition=bottom;verticalAlign=top;align=center;html=1;fontSize=12;fontStyle=0;aspect=fixed;shape=mxgraph.aws4.resourceIcon;resIcon=mxgraph.aws4.ec2;" parent="l5a9UCpcYKZ8Kxy0lygq-1" vertex="1">
          <mxGeometry x="31" y="101" width="78" height="78" as="geometry" />
        </mxCell>
        <mxCell id="l5a9UCpcYKZ8Kxy0lygq-3" value="&lt;b&gt;AWS EC2&lt;br&gt;&lt;/b&gt;Destination Server" style="sketch=0;points=[[0,0,0],[0.25,0,0],[0.5,0,0],[0.75,0,0],[1,0,0],[0,1,0],[0.25,1,0],[0.5,1,0],[0.75,1,0],[1,1,0],[0,0.25,0],[0,0.5,0],[0,0.75,0],[1,0.25,0],[1,0.5,0],[1,0.75,0]];outlineConnect=0;fontColor=#232F3E;gradientColor=#F78E04;gradientDirection=north;fillColor=#D05C17;strokeColor=#ffffff;dashed=0;verticalLabelPosition=bottom;verticalAlign=top;align=center;html=1;fontSize=12;fontStyle=0;aspect=fixed;shape=mxgraph.aws4.resourceIcon;resIcon=mxgraph.aws4.ec2;" parent="l5a9UCpcYKZ8Kxy0lygq-1" vertex="1">
          <mxGeometry x="451" y="36.5" width="78" height="78" as="geometry" />
        </mxCell>
        <mxCell id="evNDBxI6ZCn4s6gntnHf-4" value="AWS SNS&lt;br&gt;&lt;span style=&quot;font-weight: normal;&quot;&gt;Notification Topic&lt;/span&gt;" style="sketch=0;points=[[0,0,0],[0.25,0,0],[0.5,0,0],[0.75,0,0],[1,0,0],[0,1,0],[0.25,1,0],[0.5,1,0],[0.75,1,0],[1,1,0],[0,0.25,0],[0,0.5,0],[0,0.75,0],[1,0.25,0],[1,0.5,0],[1,0.75,0]];outlineConnect=0;fontColor=#232F3E;gradientColor=#FF4F8B;gradientDirection=north;fillColor=#BC1356;strokeColor=#ffffff;dashed=0;verticalLabelPosition=bottom;verticalAlign=top;align=center;html=1;fontSize=12;fontStyle=1;aspect=fixed;shape=mxgraph.aws4.resourceIcon;resIcon=mxgraph.aws4.sns;" parent="l5a9UCpcYKZ8Kxy0lygq-1" vertex="1">
          <mxGeometry x="221" y="101" width="78" height="78" as="geometry" />
        </mxCell>
        <mxCell id="evNDBxI6ZCn4s6gntnHf-5" style="edgeStyle=orthogonalEdgeStyle;rounded=0;orthogonalLoop=1;jettySize=auto;html=1;exitX=1;exitY=0.25;exitDx=0;exitDy=0;exitPerimeter=0;entryX=0;entryY=0.5;entryDx=0;entryDy=0;entryPerimeter=0;" parent="l5a9UCpcYKZ8Kxy0lygq-1" source="evNDBxI6ZCn4s6gntnHf-4" target="l5a9UCpcYKZ8Kxy0lygq-3" edge="1">
          <mxGeometry relative="1" as="geometry">
            <Array as="points">
              <mxPoint x="351" y="121" />
              <mxPoint x="351" y="76" />
              <mxPoint x="401" y="76" />
            </Array>
            <mxPoint x="583.5" y="62" as="targetPoint" />
          </mxGeometry>
        </mxCell>
        <mxCell id="evNDBxI6ZCn4s6gntnHf-6" value="(2)" style="edgeLabel;html=1;align=center;verticalAlign=middle;resizable=0;points=[];" parent="evNDBxI6ZCn4s6gntnHf-5" vertex="1" connectable="0">
          <mxGeometry x="0.0966" y="1" relative="1" as="geometry">
            <mxPoint x="-41" y="55" as="offset" />
          </mxGeometry>
        </mxCell>
        <mxCell id="evNDBxI6ZCn4s6gntnHf-11" value="&lt;b&gt;AWS SQS&lt;/b&gt;&lt;br&gt;DLQ Queue" style="sketch=0;points=[[0,0,0],[0.25,0,0],[0.5,0,0],[0.75,0,0],[1,0,0],[0,1,0],[0.25,1,0],[0.5,1,0],[0.75,1,0],[1,1,0],[0,0.25,0],[0,0.5,0],[0,0.75,0],[1,0.25,0],[1,0.5,0],[1,0.75,0]];outlineConnect=0;fontColor=#232F3E;gradientColor=#FF4F8B;gradientDirection=north;fillColor=#BC1356;strokeColor=#ffffff;dashed=0;verticalLabelPosition=bottom;verticalAlign=top;align=center;html=1;fontSize=12;fontStyle=0;aspect=fixed;shape=mxgraph.aws4.resourceIcon;resIcon=mxgraph.aws4.sqs;" parent="l5a9UCpcYKZ8Kxy0lygq-1" vertex="1">
          <mxGeometry x="451" y="165.5" width="78" height="78" as="geometry" />
        </mxCell>
        <mxCell id="evNDBxI6ZCn4s6gntnHf-17" style="edgeStyle=orthogonalEdgeStyle;rounded=0;orthogonalLoop=1;jettySize=auto;html=1;exitX=1;exitY=0.75;exitDx=0;exitDy=0;exitPerimeter=0;entryX=0;entryY=0.5;entryDx=0;entryDy=0;entryPerimeter=0;" parent="l5a9UCpcYKZ8Kxy0lygq-1" source="evNDBxI6ZCn4s6gntnHf-4" target="evNDBxI6ZCn4s6gntnHf-11" edge="1">
          <mxGeometry relative="1" as="geometry">
            <Array as="points">
              <mxPoint x="351" y="160" />
              <mxPoint x="351" y="205" />
              <mxPoint x="451" y="205" />
            </Array>
            <mxPoint x="401" y="170" as="sourcePoint" />
            <mxPoint x="521" y="220" as="targetPoint" />
          </mxGeometry>
        </mxCell>
        <mxCell id="evNDBxI6ZCn4s6gntnHf-18" value="(3)" style="edgeLabel;html=1;align=center;verticalAlign=middle;resizable=0;points=[];" parent="evNDBxI6ZCn4s6gntnHf-17" vertex="1" connectable="0">
          <mxGeometry x="-0.6801" relative="1" as="geometry">
            <mxPoint x="-9" y="9" as="offset" />
          </mxGeometry>
        </mxCell>
      </root>
    </mxGraphModel>
  </diagram>
</mxfile>
